STARTFONT 2.1
FONT -FontForge-DejaVu Sans-Bold-O-Normal-Sans--35-340-75-75-P-226-ISO10646-1
SIZE 34 75 75
FONTBOUNDINGBOX 41 34 -6 -7
COMMENT "Generated by fontforge, http://fontforge.sourceforge.net"
COMMENT "Copyright (c) 2003 by Bitstream, Inc. All Rights Reserved."
COMMENT "Copyright (c) 2006 by Tavmjong Bah. All Rights Reserved."
COMMENT "DejaVu changes are in public domain"
STARTPROPERTIES 39
FOUNDRY "FontForge"
FAMILY_NAME "DejaVu Sans"
WEIGHT_NAME "Bold"
SLANT "O"
SETWIDTH_NAME "Normal"
ADD_STYLE_NAME "Sans"
PIXEL_SIZE 35
POINT_SIZE 340
RESOLUTION_X 75
RESOLUTION_Y 75
SPACING "P"
AVERAGE_WIDTH 226
CHARSET_REGISTRY "ISO10646"
CHARSET_ENCODING "1"
FONTNAME_REGISTRY ""
CHARSET_COLLECTIONS "ISO10646-1"
FONT_NAME "DejaVuSans-BoldOblique"
FACE_NAME "DejaVu Sans Bold Oblique"
COPYRIGHT "Copyright (c) 2003 by Bitstream, Inc. All Rights Reserved."
FONT_VERSION "2.37"
FONT_ASCENT 27
FONT_DESCENT 8
UNDERLINE_POSITION -3
UNDERLINE_THICKNESS 2
RAW_ASCENT 759
RAW_DESCENT 240
ITALIC_ANGLE 5056
NORM_SPACE 12
RELATIVE_WEIGHT 70
RELATIVE_SETWIDTH 50
SUPERSCRIPT_X -3
SUPERSCRIPT_Y 16
SUPERSCRIPT_SIZE 24
SUBSCRIPT_X 0
SUBSCRIPT_Y 4
SUBSCRIPT_SIZE 24
FIGURE_WIDTH 24
AVG_LOWERCASE_WIDTH 223
AVG_UPPERCASE_WIDTH 264
ENDPROPERTIES
CHARS 44
STARTCHAR space
ENCODING 32
SWIDTH 348 0
DWIDTH 12 0
BBX 1 1 0 0
BITMAP
00
ENDCHAR
STARTCHAR hyphen
ENCODING 45
SWIDTH 415 0
DWIDTH 15 0
BBX 12 5 1 8
BITMAP
7FF0
7FF0
7FF0
FFE0
FFE0
ENDCHAR
STARTCHAR period
ENCODING 46
SWIDTH 379 0
DWIDTH 13 0
BBX 7 7 2 0
BITMAP
7E
7E
7E
FE
FC
FC
FC
ENDCHAR
STARTCHAR slash
ENCODING 47
SWIDTH 365 0
DWIDTH 13 0
BBX 19 29 -3 -3
BITMAP
0001E0
0003C0
0003C0
000780
000780
000F00
000F00
001E00
001E00
003C00
003C00
007800
007000
00F000
01E000
01E000
03C000
03C000
078000
078000
0F0000
0F0000
1E0000
1E0000
3C0000
3C0000
780000
780000
F00000
ENDCHAR
STARTCHAR zero
ENCODING 48
SWIDTH 695 0
DWIDTH 24 0
BBX 22 26 1 0
BITMAP
003F80
01FFE0
03FFF0
07FFF8
0FE1F8
1FC0FC
1F80FC
3F00FC
3F00FC
7F00FC
7E00FC
7E00FC
FE01FC
FE01FC
FC01F8
FC01F8
FC03F8
FC03F0
FC03F0
FC07E0
FC0FE0
7E1FC0
7FFF80
3FFF00
1FFE00
07F000
ENDCHAR
STARTCHAR one
ENCODING 49
SWIDTH 695 0
DWIDTH 24 0
BBX 19 26 2 0
BITMAP
00FF80
07FF80
0FFF80
0FFF00
0FFF00
0E3F00
003F00
003F00
007E00
007E00
007E00
007E00
007E00
00FE00
00FC00
00FC00
00FC00
00FC00
01FC00
01F800
01F800
7FFFE0
7FFFE0
FFFFC0
FFFFC0
FFFFC0
ENDCHAR
STARTCHAR two
ENCODING 50
SWIDTH 695 0
DWIDTH 24 0
BBX 22 26 0 0
BITMAP
007F80
03FFF0
07FFF8
07FFF8
0F83FC
0E00FC
0800FC
0000FC
0000FC
0001FC
0001F8
0003F8
0007F0
001FE0
003F80
007F00
01FE00
03F800
0FF000
1FE000
3F8000
7FFFF0
7FFFE0
FFFFE0
FFFFE0
FFFFE0
ENDCHAR
STARTCHAR three
ENCODING 51
SWIDTH 695 0
DWIDTH 24 0
BBX 22 26 0 0
BITMAP
03FFC0
07FFF0
07FFF8
07FFFC
0603FC
0000FC
0000FC
0000FC
0000FC
0001F8
0007F0
01FFE0
01FF80
01FFE0
03FFE0
000FF0
0003F0
0003F0
0003F0
0003F0
4007E0
701FE0
FFFFC0
FFFF80
FFFE00
3FF000
ENDCHAR
STARTCHAR four
ENCODING 52
SWIDTH 695 0
DWIDTH 24 0
BBX 22 26 0 0
BITMAP
0003FC
0007FC
000FFC
000FF8
001FF8
003FF8
007DF8
00FBF8
01F3F0
01E3F0
03E3F0
07C3F0
0F87F0
1F07E0
3E07E0
3E07E0
7C07E0
7FFFFC
7FFFFC
FFFFFC
FFFFFC
FFFFFC
000FC0
001FC0
001F80
001F80
ENDCHAR
STARTCHAR five
ENCODING 53
SWIDTH 695 0
DWIDTH 24 0
BBX 22 26 0 0
BITMAP
03FFFC
03FFFC
07FFFC
07FFFC
07FFF8
07C000
07C000
0FC000
0FFF00
0FFFC0
0FFFF0
0FFFF0
1E07F8
1003F8
0001F8
0001F8
0001F8
0001F8
0001F8
0003F0
4007F0
780FE0
7FFFC0
FFFF80
FFFE00
3FF800
ENDCHAR
STARTCHAR six
ENCODING 54
SWIDTH 695 0
DWIDTH 24 0
BBX 21 26 2 0
BITMAP
001FE0
00FFF8
01FFF8
07FFF8
0FE078
1FC010
1F8000
3F0000
3E0000
7E7F00
7FFFC0
7FFFE0
FFFFE0
FF87F0
FE03F0
FE03F0
FC03F0
FC03F0
FC03F0
FC07E0
7C07E0
7E1FC0
7FFF80
3FFF00
1FFE00
03F800
ENDCHAR
STARTCHAR seven
ENCODING 55
SWIDTH 695 0
DWIDTH 24 0
BBX 22 26 3 0
BITMAP
3FFFFC
3FFFFC
7FFFF8
7FFFF8
7FFFF8
0007F0
000FF0
000FE0
001FC0
003FC0
003F80
007F00
007F00
00FE00
01FC00
01FC00
03F800
07F800
07F000
0FE000
1FE000
1FC000
3F8000
3F8000
7F0000
FE0000
ENDCHAR
STARTCHAR eight
ENCODING 56
SWIDTH 695 0
DWIDTH 24 0
BBX 22 26 1 0
BITMAP
007F80
01FFF0
07FFF8
0FFFF8
0FE1FC
1FC0FC
1F80FC
1F80FC
1F80FC
1F81F8
0FC3F0
0FFFE0
03FF80
07FFC0
1FFFE0
3F07E0
7E03F0
FC03F0
FC03F0
FC03F0
FC07F0
FE0FE0
7FFFE0
7FFF80
3FFF00
07F800
ENDCHAR
STARTCHAR nine
ENCODING 57
SWIDTH 695 0
DWIDTH 24 0
BBX 21 26 2 0
BITMAP
00FE00
03FFC0
07FFE0
0FFFF0
1FC3F0
3F01F0
3F01F8
7E01F8
7E01F8
7E01F8
7E03F8
7E03F8
7F0FF8
3FFFF8
3FFFF0
1FFFF0
07F3F0
0003E0
0007E0
000FC0
401FC0
703F80
7FFF00
FFFE00
FFF800
3FC000
ENDCHAR
STARTCHAR A
ENCODING 65
SWIDTH 773 0
DWIDTH 27 0
BBX 26 26 -2 0
BITMAP
0003FC00
0007FC00
0007FC00
000FFC00
000FFC00
001FFC00
001FFE00
003FFE00
007F7E00
007F7E00
00FE7E00
00FE7F00
01FC3F00
01FC3F00
03F83F00
03F83F00
07F03F00
07FFFF80
0FFFFF80
1FFFFF80
1FFFFF80
3FFFFF80
3F801F80
7F001FC0
7F000FC0
FE000FC0
ENDCHAR
STARTCHAR C
ENCODING 67
SWIDTH 733 0
DWIDTH 26 0
BBX 23 26 1 0
BITMAP
001FE0
007FFC
01FFFE
03FFFE
0FFFFE
0FF01C
1FC004
3F8000
3F0000
7E0000
7E0000
7E0000
FC0000
FC0000
FC0000
FC0000
FC0000
FC0000
FE0010
7F0030
7F81F0
7FFFF0
3FFFE0
1FFFE0
07FFC0
01FE00
ENDCHAR
STARTCHAR D
ENCODING 68
SWIDTH 830 0
DWIDTH 29 0
BBX 27 26 1 0
BITMAP
07FFE000
07FFFC00
07FFFF00
0FFFFF80
0FFFFF80
0FC07FC0
0FC01FC0
0FC00FE0
1F8007E0
1F8007E0
1F8007E0
1F8007E0
1F8007E0
3F8007E0
3F0007E0
3F000FC0
3F000FC0
3F001F80
7F003F80
7E007F00
7E03FF00
7FFFFE00
7FFFFC00
FFFFF000
FFFFC000
FFFE0000
ENDCHAR
STARTCHAR F
ENCODING 70
SWIDTH 683 0
DWIDTH 24 0
BBX 23 26 1 0
BITMAP
07FFFE
07FFFC
07FFFC
0FFFFC
0FFFFC
0FC000
0FC000
0FC000
1F8000
1F8000
1FFFF0
1FFFF0
1FFFF0
3FFFF0
3FFFE0
3F0000
3F0000
3F0000
7F0000
7E0000
7E0000
7E0000
7E0000
FE0000
FC0000
FC0000
ENDCHAR
STARTCHAR J
ENCODING 74
SWIDTH 372 0
DWIDTH 13 0
BBX 18 33 -6 -7
BITMAP
000FC0
000FC0
001FC0
001F80
001F80
001F80
001F80
003F80
003F00
003F00
003F00
003F00
003F00
007E00
007E00
007E00
007E00
007E00
00FC00
00FC00
00FC00
00FC00
00FC00
01FC00
01F800
01F800
03F800
07F000
7FF000
7FE000
FFC000
FF0000
FC0000
ENDCHAR
STARTCHAR M
ENCODING 77
SWIDTH 995 0
DWIDTH 35 0
BBX 33 26 1 0
BITMAP
07F800FF80
07F800FF80
07FC01FF80
0FFC01FF00
0FFC03FF00
0FFC07FF00
0FFE07FF00
0FFE0FFF00
1FBE0FFE00
1FBE1F7E00
1F9E3E7E00
1F9F3E7E00
1F9F7CFE00
3F9FF8FC00
3F0FF8FC00
3F0FF0FC00
3F0FF0FC00
3F0FE0FC00
7F07C1F800
7E07C1F800
7E0781F800
7E0001F800
7E0001F800
FE0003F000
FC0003F000
FC0003F000
ENDCHAR
STARTCHAR N
ENCODING 78
SWIDTH 836 0
DWIDTH 29 0
BBX 28 26 1 0
BITMAP
07F803F0
07F803F0
07FC07F0
0FFC07E0
0FFC07E0
0FFC07E0
0FFE07E0
0FFE0FE0
1FBE0FC0
1F9F0FC0
1F9F0FC0
1F9F0FC0
1F8F9FC0
3F8F9F80
3F0F9F80
3F07DF80
3F07DF80
3F07DF80
7F03FF00
7E03FF00
7E03FF00
7E01FF00
7E01FF00
FE01FE00
FC01FE00
FC00FE00
ENDCHAR
STARTCHAR O
ENCODING 79
SWIDTH 850 0
DWIDTH 30 0
BBX 27 26 1 0
BITMAP
001FF000
00FFFC00
01FFFF00
07FFFF80
0FFFFF80
1FF03FC0
1FC01FC0
3F800FE0
3F0007E0
7E0007E0
7E0007E0
7E0007E0
FC0007E0
FC0007E0
FC000FC0
FC000FC0
FC000FC0
FC001F80
FE003F80
7F007F00
7F81FF00
3FFFFE00
3FFFFC00
1FFFF000
07FFC000
01FF0000
ENDCHAR
STARTCHAR S
ENCODING 83
SWIDTH 720 0
DWIDTH 25 0
BBX 22 26 1 0
BITMAP
007FC0
03FFF8
07FFFC
0FFFFC
1FFFFC
1FC07C
3F0008
3F0000
3F8000
3FF800
3FFF80
1FFFE0
0FFFF0
07FFF0
01FFF8
000FF8
0001F8
0001F8
4001F8
7003F8
7C07F0
7FFFF0
FFFFE0
FFFFC0
7FFF80
07FC00
ENDCHAR
STARTCHAR a
ENCODING 97
SWIDTH 674 0
DWIDTH 24 0
BBX 21 19 1 0
BITMAP
03FF80
0FFFE0
0FFFF0
1FFFF8
1E03F8
1001F8
0001F8
03FFF8
1FFFF8
3FFFF0
7FFFF0
FE03F0
FC03F0
FC07F0
FE1FE0
FFFFE0
7FF7E0
7FE7E0
1F8FE0
ENDCHAR
STARTCHAR b
ENCODING 98
SWIDTH 715 0
DWIDTH 25 0
BBX 23 27 1 0
BITMAP
07E000
07E000
07E000
0FC000
0FC000
0FC000
0FC000
0FC000
1FC7E0
1F9FF8
1FBFFC
1FFFFC
1FE0FE
3FC07E
3F807E
3F807E
3F007E
3F007E
3F007E
7F00FC
7F00FC
7F01F8
7F87F8
7FFFF0
FFFFE0
FCFFC0
FC7E00
ENDCHAR
STARTCHAR c
ENCODING 99
SWIDTH 592 0
DWIDTH 21 0
BBX 19 19 1 0
BITMAP
007F80
03FFE0
07FFE0
0FFFC0
1FC1C0
3F0040
7E0000
7E0000
FC0000
FC0000
FC0000
FC0000
FC0000
FE0100
FF0300
7FFF00
3FFF00
1FFE00
07FC00
ENDCHAR
STARTCHAR e
ENCODING 101
SWIDTH 678 0
DWIDTH 24 0
BBX 21 19 1 0
BITMAP
007F00
03FFC0
07FFE0
1FFFF0
1FC3F0
3F01F8
7F01F8
7E01F8
FFFFF8
FFFFF8
FFFFF8
FFFFF0
FC0000
FC0020
7F01E0
7FFFE0
3FFFC0
1FFFC0
07FF00
ENDCHAR
STARTCHAR g
ENCODING 103
SWIDTH 715 0
DWIDTH 25 0
BBX 24 26 0 -7
BITMAP
00FC3F
03FF3F
07FFFF
0FFFFE
1FC1FE
1F80FE
3F00FE
3F00FE
7E00FC
7E00FC
7E01FC
7E01FC
7E03F8
7E03F8
7F0FF8
3FFFF8
3FFDF8
1FFBF0
07E3F0
0007F0
4007E0
701FE0
7FFFC0
7FFF80
FFFE00
3FF000
ENDCHAR
STARTCHAR i
ENCODING 105
SWIDTH 342 0
DWIDTH 12 0
BBX 11 27 1 0
BITMAP
07E0
07E0
07E0
0FE0
0FC0
0FC0
0000
0000
0FC0
0FC0
1FC0
1F80
1F80
1F80
1F80
3F80
3F00
3F00
3F00
3F00
7F00
7E00
7E00
7E00
7E00
FC00
FC00
ENDCHAR
STARTCHAR k
ENCODING 107
SWIDTH 665 0
DWIDTH 23 0
BBX 23 27 1 0
BITMAP
07E000
07E000
07E000
0FC000
0FC000
0FC000
0FC000
0FC000
1FC0FE
1F81FC
1F83F8
1F87F0
1F9FC0
3FBF80
3FFF00
3FFC00
3FF800
3FF800
3FFC00
7F7E00
7E7F00
7E3F80
7E1F80
7E0FC0
FE07E0
FC07F0
FC03F8
ENDCHAR
STARTCHAR l
ENCODING 108
SWIDTH 342 0
DWIDTH 12 0
BBX 11 27 1 0
BITMAP
07E0
07E0
07E0
0FC0
0FC0
0FC0
0FC0
0FC0
1FC0
1F80
1F80
1F80
1F80
3F80
3F00
3F00
3F00
3F00
3F00
7F00
7E00
7E00
7E00
7E00
FE00
FC00
FC00
ENDCHAR
STARTCHAR m
ENCODING 109
SWIDTH 1041 0
DWIDTH 36 0
BBX 34 19 1 0
BITMAP
0FC7C07E00
0FDFF0FF80
1FFFFBFF80
1FFFFFFFC0
1FFFFFFFC0
1FE3FE1FC0
1FC1FC1FC0
3F81F81FC0
3F03F81FC0
3F03F01F80
3F03F01F80
3F03F01F80
7F07F03F80
7E07E03F00
7E07E03F00
7E07E03F00
7E0FE07F00
FC0FC07E00
FC0FC07E00
ENDCHAR
STARTCHAR n
ENCODING 110
SWIDTH 711 0
DWIDTH 25 0
BBX 22 19 1 0
BITMAP
0FC3E0
0FCFF8
1FFFF8
1FFFFC
1FFFFC
1FE1FC
1FC1FC
3F81FC
3F01FC
3F01F8
3F01F8
3F01F8
7F03F8
7E03F0
7E03F0
7E03F0
7E07F0
FC07E0
FC07E0
ENDCHAR
STARTCHAR o
ENCODING 111
SWIDTH 687 0
DWIDTH 24 0
BBX 22 19 1 0
BITMAP
007F80
03FFE0
07FFF0
1FFFF8
1FC3F8
3F01FC
7E00FC
7E00FC
FC00FC
FC00FC
FC00FC
FC01F8
FC01F8
FE03F0
7F0FE0
7FFFE0
3FFF80
1FFF00
07F800
ENDCHAR
STARTCHAR p
ENCODING 112
SWIDTH 715 0
DWIDTH 25 0
BBX 24 26 -1 -7
BITMAP
07E3F0
07EFFC
07FFFE
0FFFFE
0FF87F
0FF03F
0FE03F
0FC03F
1FC03F
1F803F
1F803F
1F807E
1F807E
3F80FC
3FC1FC
3FFFF8
3FFFF0
3F7FE0
7F1F80
7E0000
7E0000
7E0000
7E0000
FE0000
FC0000
FC0000
ENDCHAR
STARTCHAR r
ENCODING 114
SWIDTH 493 0
DWIDTH 17 0
BBX 18 19 1 0
BITMAP
0FC7C0
0FDFC0
1FFFC0
1FFF80
1FFF80
1FE080
1FC000
3F8000
3F8000
3F0000
3F0000
3F0000
7F0000
7E0000
7E0000
7E0000
7E0000
FC0000
FC0000
ENDCHAR
STARTCHAR s
ENCODING 115
SWIDTH 595 0
DWIDTH 21 0
BBX 19 19 1 0
BITMAP
01FF80
07FFE0
1FFFE0
1FFFE0
3F81E0
3F0040
3F8000
3FF800
1FFF00
1FFF80
07FFC0
00FFC0
000FC0
400FC0
F01FC0
FFFF80
FFFF00
FFFE00
3FF800
ENDCHAR
STARTCHAR t
ENCODING 116
SWIDTH 478 0
DWIDTH 17 0
BBX 16 25 2 0
BITMAP
07E0
0FE0
0FC0
0FC0
0FC0
0FC0
FFFF
FFFF
FFFF
FFFE
1F80
3F80
3F00
3F00
3F00
3F00
3F00
7F00
7E00
7E00
7F00
7FF8
7FF0
3FF0
0FF0
ENDCHAR
STARTCHAR u
ENCODING 117
SWIDTH 711 0
DWIDTH 25 0
BBX 22 19 2 0
BITMAP
1F80FC
1F80FC
3F81F8
3F01F8
3F01F8
3F01F8
7F03F8
7E03F0
7E03F0
7E03F0
FE07F0
FE07F0
FE0FE0
FE1FE0
FFFFE0
FFFFE0
7FFFE0
7FCFC0
1F0FC0
ENDCHAR
STARTCHAR v
ENCODING 118
SWIDTH 651 0
DWIDTH 23 0
BBX 22 19 2 0
BITMAP
FC00FC
FC01F8
7C01F8
7E03F0
7E07E0
7E07E0
7E0FC0
3E0F80
3E1F80
3E3F00
3F3F00
3F7E00
1F7C00
1FFC00
1FF800
1FF800
1FF000
0FE000
0FE000
ENDCHAR
STARTCHAR y
ENCODING 121
SWIDTH 651 0
DWIDTH 23 0
BBX 24 26 0 -7
BITMAP
3F807F
1F80FE
1F80FE
1F81FC
1F81F8
0F83F8
0FC3F0
0FC7F0
0FC7E0
07CFC0
07CFC0
07DF80
07FF80
03FF00
03FE00
03FE00
03FC00
01FC00
01F800
01F000
03F000
07E000
7FE000
FFC000
FF8000
FE0000
ENDCHAR
STARTCHAR z
ENCODING 122
SWIDTH 582 0
DWIDTH 20 0
BBX 21 19 0 0
BITMAP
0FFFF8
0FFFF8
1FFFF8
1FFFF0
001FF0
003FE0
007FC0
00FF80
01FF00
03FE00
07FC00
0FF800
1FF000
3FC000
7F8000
7FFFC0
FFFFC0
FFFFC0
FFFF80
ENDCHAR
STARTCHAR degree
ENCODING 176
SWIDTH 500 0
DWIDTH 18 0
BBX 11 11 3 15
BITMAP
1F00
3F80
7FC0
F1E0
E0E0
E0E0
E0E0
F1E0
7FC0
3F80
1F00
ENDCHAR
STARTCHAR adieresis
ENCODING 228
SWIDTH 674 0
DWIDTH 24 0
BBX 20 28 1 -1
BITMAP
00F1E0
00F1E0
00F3E0
01F3C0
000000
000000
000000
007800
0FFFC0
0FFFE0
1FFFF0
1FFFF0
1003F0
0003F0
0003F0
07FFF0
1FFFF0
7FFFF0
7F87F0
FE07E0
FC07E0
FC0FE0
FC1FE0
FFFFE0
FFFFC0
7FEFC0
3F8FC0
040000
ENDCHAR
ENDFONT
